<svg width="16" height="16" viewBox="0 0 16 16" fill="none" xmlns="http://www.w3.org/2000/svg">
<path d="M7.99992 8.66665C8.36811 8.66665 8.66659 8.36817 8.66659 7.99998C8.66659 7.63179 8.36811 7.33331 7.99992 7.33331C7.63173 7.33331 7.33325 7.63179 7.33325 7.99998C7.33325 8.36817 7.63173 8.66665 7.99992 8.66665Z" stroke="#0A0A0A" stroke-width="1.33333" stroke-linecap="round" stroke-linejoin="round"/>
<path d="M7.99992 4.00002C8.36811 4.00002 8.66659 3.70154 8.66659 3.33335C8.66659 2.96516 8.36811 2.66669 7.99992 2.66669C7.63173 2.66669 7.33325 2.96516 7.33325 3.33335C7.33325 3.70154 7.63173 4.00002 7.99992 4.00002Z" stroke="#0A0A0A" stroke-width="1.33333" stroke-linecap="round" stroke-linejoin="round"/>
<path d="M7.99992 13.3333C8.36811 13.3333 8.66659 13.0349 8.66659 12.6667C8.66659 12.2985 8.36811 12 7.99992 12C7.63173 12 7.33325 12.2985 7.33325 12.6667C7.33325 13.0349 7.63173 13.3333 7.99992 13.3333Z" stroke="#0A0A0A" stroke-width="1.33333" stroke-linecap="round" stroke-linejoin="round"/>
</svg>
