<svg width="16" height="16" viewBox="0 0 16 16" fill="none" xmlns="http://www.w3.org/2000/svg">
<rect width="16" height="16" rx="2" fill="#0088FF"/>
<path d="M10.6658 6.48621C10.6658 6.27375 10.7108 5.95097 10.8006 5.51788C10.8905 5.07661 10.9355 4.76609 10.9355 4.58631C10.9355 4.25945 10.817 3.99796 10.58 3.80184C10.3512 3.59755 10.0243 3.4668 9.59941 3.4096L9.84456 2C10.6536 2.04086 11.3032 2.28601 11.7935 2.73544C12.2838 3.18488 12.5289 3.74055 12.5289 4.40245C12.5289 4.63126 12.484 4.97038 12.3941 5.41982C12.3042 5.86108 12.2593 6.19203 12.2593 6.41267C12.2593 6.92748 12.5698 7.19305 13.1908 7.2094L13.3747 8.54545C12.9498 8.55363 12.6556 8.64351 12.4922 8.81512C12.3369 8.97855 12.2593 9.18284 12.2593 9.42799C12.2593 9.66496 12.292 9.99183 12.3573 10.4086C12.4309 10.8253 12.4677 11.1399 12.4677 11.3524C12.4677 12.0878 12.1776 12.7007 11.5974 13.191C11.0172 13.6895 10.2491 13.9591 9.29297 14V12.7743C9.84864 12.6844 10.2491 12.5046 10.4942 12.2349C10.7475 11.9653 10.8742 11.5894 10.8742 11.1073C10.8742 10.952 10.8374 10.6946 10.7639 10.335C10.6985 9.96731 10.6658 9.69357 10.6658 9.51379C10.6658 8.89275 11.0172 8.39019 11.72 8.00613C11.0172 7.62206 10.6658 7.11542 10.6658 6.48621Z" fill="white"/>
<path d="M5.7089 9.51379C5.7089 9.72625 5.66396 10.0531 5.57407 10.4944C5.48418 10.9275 5.43924 11.2339 5.43924 11.4137C5.43924 11.7406 5.55364 12.002 5.78245 12.1982C6.01943 12.4025 6.35038 12.5332 6.7753 12.5904L6.53015 14C5.72116 13.9591 5.07151 13.714 4.58121 13.2646C4.09092 12.8151 3.84577 12.2594 3.84577 11.5975C3.84577 11.3687 3.89071 11.0337 3.9806 10.5924C4.07049 10.143 4.11543 9.80388 4.11543 9.57508C4.11543 9.06844 3.80491 8.80695 3.18386 8.7906L3 7.45455C3.42493 7.44637 3.71502 7.36057 3.87028 7.19714C4.03371 7.02554 4.11543 6.82125 4.11543 6.58427C4.11543 6.33912 4.07866 6.00817 4.00511 5.59142C3.93974 5.17467 3.90705 4.86006 3.90705 4.6476C3.90705 3.91216 4.19715 3.29928 4.77733 2.80899C5.35752 2.31052 6.12566 2.04086 7.08174 2V3.22574C6.52607 3.31563 6.12157 3.4954 5.86825 3.76507C5.6231 4.03473 5.50053 4.41062 5.50053 4.89275C5.50053 5.04801 5.53321 5.3095 5.59859 5.67722C5.67213 6.03677 5.7089 6.30644 5.7089 6.48621C5.7089 7.10725 5.35752 7.60981 4.65476 7.99387C5.35752 8.37794 5.7089 8.88458 5.7089 9.51379Z" fill="white"/>
</svg>
