<svg width="153" height="36" viewBox="0 0 153 36" fill="none" xmlns="http://www.w3.org/2000/svg">
<g clip-path="url(#clip0_109_58)">
<path d="M144.958 13.176C144.958 12.552 145.09 11.604 145.354 10.332C145.618 9.036 145.75 8.124 145.75 7.596C145.75 6.636 145.402 5.868 144.706 5.292C144.034 4.692 143.074 4.308 141.826 4.14L142.546 0C144.922 0.12 146.83 0.84 148.27 2.16C149.71 3.48 150.43 5.112 150.43 7.056C150.43 7.728 150.298 8.724 150.034 10.044C149.77 11.34 149.638 12.312 149.638 12.96C149.638 14.472 150.55 15.252 152.374 15.3L152.914 19.224C151.666 19.248 150.802 19.512 150.322 20.016C149.866 20.496 149.638 21.096 149.638 21.816C149.638 22.512 149.734 23.472 149.926 24.696C150.142 25.92 150.25 26.844 150.25 27.468C150.25 29.628 149.398 31.428 147.694 32.868C145.99 34.332 143.734 35.124 140.926 35.244V31.644C142.558 31.38 143.734 30.852 144.454 30.06C145.198 29.268 145.57 28.164 145.57 26.748C145.57 26.292 145.462 25.536 145.246 24.48C145.054 23.4 144.958 22.596 144.958 22.068C144.958 20.244 145.99 18.768 148.054 17.64C145.99 16.512 144.958 15.024 144.958 13.176Z" fill="#0088FF"/>
<path d="M137.754 1.51196C137.538 5.30396 137.43 9.57596 137.43 14.328C137.43 19.08 137.586 23.412 137.898 27.324L133.038 26.892C132.726 21.996 132.57 17.58 132.57 13.644C132.57 9.68396 132.678 5.49596 132.894 1.07996L137.754 1.51196Z" fill="#0088FF"/>
<path d="M116.26 3.88789L119.86 4.21189C120.028 6.13189 120.28 8.67589 120.616 11.8439C120.976 14.9879 121.228 17.2199 121.372 18.5399L121.552 18.5039C123.256 11.1599 124.36 5.41189 124.864 1.25989L129.58 1.65589C128.236 9.59989 126.268 17.7599 123.676 26.1359L120.22 25.8479C119.404 23.0159 118.492 19.3079 117.484 14.7239C116.452 19.6679 115.468 23.6159 114.532 26.5679L111.076 26.2799C109.036 16.1039 107.656 7.84789 106.936 1.51189L111.58 1.90789C111.964 5.96389 112.564 11.5079 113.38 18.5399L113.56 18.5039C114.952 12.0959 115.852 7.22389 116.26 3.88789Z" fill="#0088FF"/>
<path d="M93.326 8.38796L93.362 12.528L98.762 12.204C98.762 8.45996 98.8219 4.48796 98.9419 0.287964L103.694 0.719963C103.478 4.53596 103.37 8.67596 103.37 13.14C103.37 17.58 103.502 22.044 103.766 26.532L99.158 26.136C98.942 24.072 98.81 20.76 98.762 16.2L93.4699 16.524C93.5419 19.932 93.65 23.4 93.794 26.928L88.8979 26.496C88.6339 21.432 88.502 16.776 88.502 12.528C88.502 8.27996 88.5979 4.60796 88.7899 1.51196L93.542 1.94396C93.398 4.07996 93.326 6.22796 93.326 8.38796Z" fill="#0088FF"/>
<path d="M78.4062 5.72397C77.3502 5.72397 76.4262 7.03197 75.6342 9.64797C74.8422 12.24 74.4462 14.544 74.4462 16.56C74.4462 20.784 75.5502 22.896 77.7582 22.896C78.3822 22.896 78.9222 22.632 79.3782 22.104C79.8582 21.552 80.1942 20.988 80.3862 20.412C80.6022 19.836 80.8542 19.044 81.1422 18.036L85.7142 18.396C85.0902 21.348 84.1542 23.604 82.9062 25.164C81.6822 26.724 79.9662 27.504 77.7582 27.504C75.1662 27.504 73.1622 26.532 71.7462 24.588C70.3542 22.62 69.6582 20.124 69.6582 17.1C69.6582 13.572 70.3542 10.14 71.7462 6.80397C72.4182 5.14797 73.3542 3.79197 74.5542 2.73597C75.7782 1.65597 77.1702 1.11597 78.7302 1.11597C80.6502 1.11597 82.0422 1.75197 82.9062 3.02397C83.3382 3.64797 83.6862 4.28397 83.9502 4.93197C84.2382 5.57997 84.4422 6.40797 84.5622 7.41597C84.7782 9.02397 84.9102 10.752 84.9582 12.6L80.3142 12.168C80.3142 9.07197 80.0262 7.12797 79.4502 6.33597C79.1862 5.92797 78.8382 5.72397 78.4062 5.72397Z" fill="#0088FF"/>
<path d="M55.3217 26.568C55.2257 22.776 55.1777 19.188 55.1777 15.804C55.1777 12.42 55.3697 8.016 55.7537 2.592C59.8577 1.968 63.8657 1.65601 67.7777 1.65601V6.08401C65.0657 6.08401 62.5457 6.16801 60.2177 6.33601C60.1217 9.02401 60.0617 11.088 60.0377 12.528C61.8617 12.264 64.0217 12.108 66.5177 12.06L67.2017 16.02C65.5937 16.044 63.1817 16.224 59.9657 16.56C59.9657 19.44 59.9777 21.516 60.0017 22.788C62.0897 22.62 64.5857 22.26 67.4897 21.708L68.1017 25.668C66.0617 26.604 63.6497 27.072 60.8657 27.072L55.3217 26.568Z" fill="#0088FF"/>
<path d="M46.766 26.064L45.938 21.06L40.574 21.276L39.206 28.044L34.166 27.612L40.61 1.51196L47.27 2.08796L51.986 26.496L46.766 26.064ZM43.598 6.22796L41.33 17.424L45.362 17.28L43.598 6.22796Z" fill="#0088FF"/>
<path d="M28.1164 12.132C28.2124 11.652 28.2604 10.872 28.2604 9.79197C28.2604 8.68797 28.0804 7.67997 27.7204 6.76797C27.3604 5.83197 26.8324 5.36397 26.1364 5.36397C25.2964 5.36397 24.4804 6.45597 23.6884 8.63997C22.8964 10.8 22.5004 13.128 22.5004 15.624C22.5004 18.096 22.7404 20.04 23.2204 21.456C23.7004 22.848 24.4084 23.544 25.3444 23.544C26.2804 23.544 26.9884 23.112 27.4684 22.248C27.9484 21.384 28.3084 20.112 28.5484 18.432C27.6844 18.432 26.7604 18.516 25.7764 18.684L25.0204 15.12C27.2044 14.976 29.9404 14.712 33.2284 14.328C33.3724 15.576 33.4444 16.716 33.4444 17.748C33.4444 18.78 33.1324 20.064 32.5084 21.6C31.9084 23.136 30.9964 24.492 29.7724 25.668C28.5724 26.844 27.2524 27.432 25.8124 27.432C23.3164 27.432 21.3124 26.46 19.8004 24.516C18.3124 22.572 17.5684 19.824 17.5684 16.272C17.5684 13.656 17.8924 11.208 18.5404 8.92797C19.1884 6.64797 20.1484 4.77597 21.4204 3.31197C22.6924 1.84797 24.1444 1.11597 25.7764 1.11597C27.3604 1.11597 28.8484 1.69197 30.2404 2.84397C30.9604 3.44397 31.5364 4.30797 31.9684 5.43597C32.4244 6.53997 32.6524 7.70397 32.6524 8.92797C32.6524 10.152 32.5444 11.34 32.3284 12.492L28.1164 12.132Z" fill="#0088FF"/>
<path d="M7.956 22.068C7.956 22.692 7.824 23.652 7.56 24.948C7.296 26.22 7.164 27.12 7.164 27.648C7.164 28.608 7.5 29.376 8.172 29.952C8.868 30.552 9.84 30.936 11.088 31.104L10.368 35.244C7.992 35.124 6.084 34.404 4.644 33.084C3.204 31.764 2.484 30.132 2.484 28.188C2.484 27.516 2.616 26.532 2.88 25.236C3.144 23.916 3.276 22.92 3.276 22.248C3.276 20.76 2.364 19.992 0.54 19.944L0 16.02C1.248 15.996 2.1 15.744 2.556 15.264C3.036 14.76 3.276 14.16 3.276 13.464C3.276 12.744 3.168 11.772 2.952 10.548C2.76 9.324 2.664 8.4 2.664 7.776C2.664 5.616 3.516 3.816 5.22 2.376C6.924 0.912 9.18 0.12 11.988 0V3.6C10.356 3.864 9.168 4.392 8.424 5.184C7.704 5.976 7.344 7.08 7.344 8.496C7.344 8.952 7.44 9.72 7.632 10.8C7.848 11.856 7.956 12.648 7.956 13.176C7.956 15 6.924 16.476 4.86 17.604C6.924 18.732 7.956 20.22 7.956 22.068Z" fill="#0088FF"/>
</g>
<defs>
<clipPath id="clip0_109_58">
<rect width="153" height="36" fill="white"/>
</clipPath>
</defs>
</svg>
