<svg width="380" height="166" viewBox="0 0 380 166" fill="none" xmlns="http://www.w3.org/2000/svg">
<path d="M342.569 61.8439C342.569 58.9151 343.189 54.4654 344.428 48.4951C345.667 42.4121 346.287 38.1314 346.287 35.6532C346.287 31.1473 344.653 27.5425 341.387 24.839C338.232 22.0227 333.727 20.2204 327.869 19.4318L331.248 0C342.4 0.563241 351.356 3.94269 358.115 10.1383C364.874 16.334 368.253 23.9941 368.253 33.1186C368.253 36.2727 367.634 40.9476 366.395 47.1433C365.155 53.2263 364.536 57.7886 364.536 60.8301C364.536 67.9269 368.816 71.588 377.378 71.8133L379.912 90.2313C374.055 90.3439 369.999 91.5831 367.746 93.9487C365.606 96.2016 364.536 99.0179 364.536 102.397C364.536 105.664 364.986 110.17 365.888 115.915C366.901 121.66 367.408 125.997 367.408 128.926C367.408 139.064 363.409 147.513 355.411 154.272C347.413 161.143 336.824 164.861 323.645 165.424V148.527C331.305 147.288 336.824 144.809 340.204 141.092C343.696 137.375 345.442 132.193 345.442 125.547C345.442 123.406 344.935 119.858 343.921 114.901C343.02 109.832 342.569 106.058 342.569 103.58C342.569 95.0188 347.413 88.091 357.101 82.7965C347.413 77.502 342.569 70.5178 342.569 61.8439Z" fill="#0088FF"/>
<path d="M277.521 96.4834C273.578 96.4834 265.862 97.1592 254.372 98.511L234.264 84.8243C234.264 82.1207 239.559 71.3065 250.148 52.3816C260.849 33.344 269.241 20.5021 275.324 13.8558L303.205 16.5594C300.501 37.7373 298.812 58.1829 298.136 77.8964L308.95 78.9102L306.584 96.6523H297.798C297.798 109.494 298.079 120.308 298.643 129.095L278.366 127.405C277.803 119.407 277.521 109.1 277.521 96.4834ZM259.441 78.9102C265.073 78.1217 271.156 77.7274 277.69 77.7274C278.479 62.8578 279.83 48.9458 281.745 35.9912C272.17 52.5505 264.736 66.8569 259.441 78.9102Z" fill="#0088FF"/>
<path d="M192.972 33.9635C189.029 33.9635 185.818 38.8637 183.34 48.6641C180.862 58.4645 179.623 68.4339 179.623 78.5722C179.623 88.5979 180.749 96.089 183.002 101.046C185.368 106.002 188.522 108.48 192.465 108.48C195.506 108.48 198.322 104.594 200.913 96.8212C203.617 88.9359 204.969 80.093 204.969 70.2926C204.969 46.0732 200.97 33.9635 192.972 33.9635ZM157.656 81.4448C157.656 70.7432 158.952 60.4922 161.543 50.6918C164.246 40.7787 168.358 32.4427 173.878 25.6838C179.397 18.8123 185.931 15.3765 193.479 15.3765C201.026 15.3765 207.391 17.9111 212.572 22.9803C222.148 32.5554 226.935 48.3262 226.935 70.2926C226.935 79.8677 225.245 89.1048 221.866 98.004C218.486 106.791 214.149 113.831 208.855 119.126C203.561 124.42 198.097 127.067 192.465 127.067C181.65 127.067 173.146 122.899 166.95 114.563C160.754 106.227 157.656 95.1878 157.656 81.4448Z" fill="#0088FF"/>
<path d="M113.829 96.4834C109.886 96.4834 102.17 97.1592 90.6799 98.511L70.5721 84.8243C70.5721 82.1207 75.8666 71.3065 86.4556 52.3816C97.1571 33.344 105.549 20.5021 111.632 13.8558L139.513 16.5594C136.809 37.7373 135.12 58.1829 134.444 77.8964L145.258 78.9102L142.892 96.6523H134.106C134.106 109.494 134.387 120.308 134.951 129.095L114.674 127.405C114.111 119.407 113.829 109.1 113.829 96.4834ZM95.749 78.9102C101.381 78.1217 107.464 77.7274 113.998 77.7274C114.787 62.8578 116.138 48.9458 118.053 35.9912C108.478 52.5505 101.044 66.8569 95.749 78.9102Z" fill="#0088FF"/>
<path d="M37.3429 103.58C37.3429 106.509 36.7233 111.015 35.4842 117.098C34.2451 123.068 33.6255 127.293 33.6255 129.771C33.6255 134.277 35.2026 137.882 38.3567 140.585C41.6235 143.401 46.1858 145.204 52.0435 145.992L48.6641 165.424C37.5119 164.861 28.5563 161.481 21.7974 155.286C15.0385 149.09 11.6591 141.43 11.6591 132.305C11.6591 129.151 12.2787 124.533 13.5178 118.45C14.7569 112.254 15.3765 107.579 15.3765 104.425C15.3765 97.4408 11.0959 93.836 2.53459 93.6107L0 75.1927C5.85771 75.0801 9.85673 73.8973 11.997 71.6443C14.25 69.2787 15.3765 66.4625 15.3765 63.1957C15.3765 59.8162 14.8696 55.254 13.8557 49.5089C12.9546 43.7639 12.504 39.4269 12.504 36.498C12.504 26.3597 16.503 17.9111 24.501 11.1522C32.499 4.28063 43.088 0.563241 56.2678 0V16.8972C48.6077 18.1364 43.0316 20.6146 39.5396 24.332C36.1601 28.0494 34.4704 33.2312 34.4704 39.8775C34.4704 42.0178 34.921 45.6226 35.8222 50.6917C36.836 55.6483 37.3429 59.3657 37.3429 61.8439C37.3429 70.4052 32.499 77.3331 22.8113 82.6275C32.499 87.922 37.3429 94.9062 37.3429 103.58Z" fill="#0088FF"/>
</svg>
